HIERARCHY
ROOT reference
{
  OFFSET 0 0 0
  CHANNELS 6 Xposition Yposition Zposition Zrotation Xrotation Yrotation
  JOINT Hips
  {
    OFFSET 3.28202 83.565 230.406
    CHANNELS 6 Xposition Yposition Zposition Zrotation Xrotation Yrotation
    JOINT Spine
    {
      OFFSET 0 7.59534 0
      CHANNELS 6 Xposition Yposition Zposition Zrotation Xrotation Yrotation
      JOINT Spine1
      {
        OFFSET 0 23.5015 0
        CHANNELS 6 Xposition Yposition Zposition Zrotation Xrotation Yrotation
        JOINT Neck
        {
          OFFSET 0 23.405 2.12773
          CHANNELS 6 Xposition Yposition Zposition Zrotation Xrotation Yrotation
          JOINT Head
          {
            OFFSET 0 12.9677 -1.85252
            CHANNELS 6 Xposition Yposition Zposition Zrotation Xrotation Yrotation
            End Site
            {
              OFFSET 0 23.1565 0
            }
          }
        }
        JOINT LeftShoulder
        {
          OFFSET 3.62206 22.4732 -0.132728
          CHANNELS 6 Xposition Yposition Zposition Zrotation Xrotation Yrotation
          JOINT LeftArm
          {
            OFFSET 8.17784 0 0
            CHANNELS 6 Xposition Yposition Zposition Zrotation Xrotation Yrotation
            JOINT LeftForeArm
            {
              OFFSET 30.104 0 0
              CHANNELS 6 Xposition Yposition Zposition Zrotation Xrotation Yrotation
              JOINT LeftHand
              {
                OFFSET 24.4664 0 0
                CHANNELS 6 Xposition Yposition Zposition Zrotation Xrotation Yrotation
                End Site
                {
                  OFFSET 13.8939 0 0
                }
              }
            }
          }
        }
        JOINT RightShoulder
        {
          OFFSET -3.6336 22.4732 -0.132728
          CHANNELS 6 Xposition Yposition Zposition Zrotation Xrotation Yrotation
          JOINT RightArm
          {
            OFFSET -8.17784 0 0
            CHANNELS 6 Xposition Yposition Zposition Zrotation Xrotation Yrotation
            JOINT RightForeArm
            {
              OFFSET -30.104 0 0
              CHANNELS 6 Xposition Yposition Zposition Zrotation Xrotation Yrotation
              JOINT RightHand
              {
                OFFSET -24.4664 0 0
                CHANNELS 6 Xposition Yposition Zposition Zrotation Xrotation Yrotation
                End Site
                {
                  OFFSET -13.8939 0 0
                }
              }
            }
          }
        }
      }
    }
    JOINT LeftUpLeg
    {
      OFFSET 9.26261 0 0
      CHANNELS 6 Xposition Yposition Zposition Zrotation Xrotation Yrotation
      JOINT LeftLeg
      {
        OFFSET 0 -35.4897 0
        CHANNELS 6 Xposition Yposition Zposition Zrotation Xrotation Yrotation
        JOINT LeftFoot
        {
          OFFSET 0 -38.2023 0
          CHANNELS 6 Xposition Yposition Zposition Zrotation Xrotation Yrotation
          JOINT LeftToeBase
          {
            OFFSET 0 -6.0207 13.8939
            CHANNELS 6 Xposition Yposition Zposition Zrotation Xrotation Yrotation
            End Site
            {
              OFFSET 0 0 3.70504
            }
          }
        }
      }
    }
    JOINT RightUpLeg
    {
      OFFSET -9.26261 0 0
      CHANNELS 6 Xposition Yposition Zposition Zrotation Xrotation Yrotation
      JOINT RightLeg
      {
        OFFSET 0 -35.4897 0
        CHANNELS 6 Xposition Yposition Zposition Zrotation Xrotation Yrotation
        JOINT RightFoot
        {
          OFFSET 0 -38.2023 0
          CHANNELS 6 Xposition Yposition Zposition Zrotation Xrotation Yrotation
          JOINT RightToeBase
          {
            OFFSET 0 -6.0207 13.8939
            CHANNELS 6 Xposition Yposition Zposition Zrotation Xrotation Yrotation
            End Site
            {
              OFFSET 0 0 3.70504
            }
          }
        }
      }
    }
  }
}
MOTION
Frames:	11
Frame Time:	0.004
0 0 0 0 0 -0 -19.1379 60.5951 -190.642 5.40186 10.1775 -27.542 2.84217e-014 7.59534 2.84217e-014 -25.5745 53.5868 15.034 0 23.5015 0 -5.45376 11.1237 2.48907 0 23.405 2.12773 0.852272 10.9508 -5.61797 0 12.9677 -1.85252 10.808 -29.6298 -1.63437 3.62206 22.4732 -0.132728 1.73986 0.498516 -14.9317 8.17784 -2.84217e-014 0 -7.53832 15.9102 -37.4837 30.104 0 7.10543e-015 15.4352 -16.2238 -19.4267 24.4664 2.84217e-014 4.44089e-016 8.05971 -13.8177 -2.37913 -3.6336 22.4732 -0.132728 -0.487581 3.87228 52.5606 -8.17784 -2.84217e-014 1.42109e-014 12.0192 14.2993 22.2543 -30.104 -2.84217e-014 0 -8.8514 -14.3815 10.1722 -24.4664 0 1.42109e-014 -8.85652 -13.4339 -2.41664 9.26261 -7.10543e-015 2.84217e-014 27.9404 -53.1186 22.0298 0 -35.4897 0 -44.8865 57.655 23.6252 0 -38.2023 0 27.9399 -23.061 31.2935 7.10543e-015 -6.0207 13.8939 4.72114e-016 0 -1.98785e-016 -9.26261 0 0 -6.8873 -57.8623 -0.909586 0 -35.4897 0 -81.1689 80.3391 73.7061 0 -38.2023 1.42109e-014 3.57229 2.07252 25.2319 0 -6.0207 13.8939 7.95139e-016 3.18055e-015 -0 
0 0 0 0 0 -0 -19.1302 60.3927 -190.637 5.51028 10.1948 -27.4838 0 7.59534 0 -25.7604 53.8574 15.1882 0 23.5015 0 -5.41042 11.0489 2.46129 0 23.405 2.12773 0.888906 10.8591 -5.66307 0 12.9677 -1.85252 10.8391 -29.7808 -1.65767 3.62206 22.4732 -0.132728 1.83436 0.447578 -15.0537 8.17784 0 0 -7.4602 15.6515 -37.4705 30.104 0 3.55271e-015 15.4449 -16.1907 -19.5282 24.4664 0 -8.88178e-016 8.03593 -13.7635 -2.30814 -3.6336 22.4732 -0.132728 -0.515278 3.78826 52.5775 -8.17784 0 0 11.936 14.1999 22.1342 -30.104 0 0 -8.80645 -14.3945 10.0377 -24.4664 0 0 -8.89172 -13.457 -2.46097 9.26261 0 0 28.0804 -53.4415 21.9221 0 -35.4897 0 -45.8215 57.79 24.6847 0 -38.2023 0 28.0696 -23.3463 31.2545 0 -6.0207 13.8939 1.14301e-015 -1.59028e-015 3.97569e-016 -9.26261 -7.10543e-015 0 -6.90991 -58.0168 -0.850769 0 -35.4897 0 -83.1441 80.2469 75.4888 -1.42109e-014 -38.2023 -1.42109e-014 3.86194 1.66669 25.4201 -1.42109e-014 -6.0207 13.8939 -1.76556e-031 -6.36111e-015 -1.59028e-015 
0 0 0 0 0 -0 -19.1231 60.1938 -190.625 5.62003 10.1686 -27.4 0 7.59534 0 -25.9173 54.185 15.291 0 23.5015 -1.42109e-014 -5.42097 10.9725 2.38494 -1.42109e-014 23.405 2.12773 0.910613 10.7242 -5.68841 0 12.9677 -1.85252 10.9717 -29.8816 -1.62432 3.62206 22.4732 -0.132728 1.94757 0.295252 -15.1041 8.17784 -1.42109e-014 0 -7.34727 15.6104 -37.4822 30.104 2.84217e-014 -3.55271e-015 15.5218 -16.1422 -19.5557 24.4664 0 0 8.23688 -13.6871 -2.10324 -3.6336 22.4732 -0.132728 -0.486322 3.69421 52.6444 -8.17784 2.84217e-014 0 11.8436 14.1236 22.0118 -30.104 0 0 -8.75708 -14.4304 9.92157 -24.4664 -2.84217e-014 0 -8.90673 -13.5051 -2.4681 9.26261 0 0 28.1522 -53.7598 21.897 0 -35.4897 1.42109e-014 -46.6788 58.0732 25.1708 0 -38.2023 0 28.048 -23.4276 31.6336 3.55271e-015 -6.0207 13.8939 2.98177e-016 -1.59028e-015 -7.95139e-016 -9.26261 -7.10543e-015 -2.84217e-014 -7.06166 -58.1295 -0.862975 -1.42109e-014 -35.4897 0 -85.1729 80.223 77.4115 -2.84217e-014 -38.2023 1.42109e-014 4.08735 1.20504 25.5559 0 -6.0207 13.8939 7.95139e-016 0 7.95139e-016 
0 0 0 0 0 -0 -19.1086 59.9883 -190.619 5.7404 10.1928 -27.3495 1.42109e-014 7.59534 0 -26.017 54.428 15.3573 1.42109e-014 23.5015 0 -5.45599 10.9274 2.32968 0 23.405 2.12773 0.989761 10.6464 -5.77914 0 12.9677 -1.85252 11.0518 -30.0392 -1.67693 3.62206 22.4732 -0.132728 2.04567 0.186516 -15.1487 8.17784 0 -1.42109e-014 -7.23747 15.3808 -37.5093 30.104 0 7.10543e-015 15.4202 -16.1165 -19.6026 24.4664 -2.84217e-014 0 8.46447 -13.6792 -2.14409 -3.6336 22.4732 -0.132728 -0.436712 3.64915 52.6625 -8.17784 5.68434e-014 1.42109e-014 11.6559 14.076 21.9349 -30.104 2.84217e-014 0 -8.66228 -14.5057 9.83127 -24.4664 2.84217e-014 0 -9.37693 -13.5624 -2.7585 9.26261 0 -2.84217e-014 28.3771 -53.9812 21.9096 0 -35.4897 -1.42109e-014 -47.7364 58.0928 25.8031 0 -38.2023 0 28.6081 -23.3304 32.1302 0 -6.0207 13.8939 -1.2921e-015 0 1.98785e-016 -9.26261 0 0 -7.19846 -58.3173 -0.784525 0 -35.4897 -1.42109e-014 -87.4189 80.277 79.8248 0 -38.2023 -1.42109e-014 4.22516 0.606875 25.427 0 -6.0207 13.8939 -7.95139e-016 0 -7.95139e-016 
0 0 0 0 0 -0 -19.1016 59.7887 -190.608 5.845 10.2218 -27.2928 -1.42109e-014 7.59534 2.84217e-014 -26.1896 54.6968 15.4939 0 23.5015 2.84217e-014 -5.41542 10.8153 2.28677 0 23.405 2.12773 1.0553 10.6496 -5.78464 0 12.9677 -1.85252 11.0891 -30.2889 -1.64751 3.62206 22.4732 -0.132728 2.1197 0.108189 -15.2705 8.17784 0 0 -7.135 15.2407 -37.468 30.104 0 0 15.4603 -16.0571 -19.6529 24.4664 2.84217e-014 -4.44089e-016 8.50365 -13.5973 -2.02253 -3.6336 22.4732 -0.132728 -0.354272 3.53357 52.5666 -8.17784 2.84217e-014 0 11.5318 14.1035 21.9376 -30.104 -2.84217e-014 0 -8.62376 -14.5181 9.66126 -24.4664 0 0 -8.86987 -13.6358 -2.31754 9.26261 0 2.84217e-014 28.5979 -54.3364 22.3286 0 -35.4897 1.42109e-014 -48.3222 58.5958 26.1887 0 -38.2023 0 28.7457 -23.375 32.2605 0 -6.0207 13.8939 -1.71452e-015 -1.59028e-015 -3.97569e-016 -9.26261 7.10543e-015 2.84217e-014 -7.26658 -58.5402 -1.00742 -1.42109e-014 -35.4897 0 -89.7921 79.9778 82.1857 0 -38.2023 0 4.32506 0.268678 25.4237 0 -6.0207 13.8939 -7.95139e-016 -3.18055e-015 -0 
0 0 0 0 0 -0 -19.086 59.5871 -190.608 5.9761 10.2874 -27.2534 1.42109e-014 7.59534 0 -26.297 54.8666 15.5575 0 23.5015 0 -5.37923 10.7866 2.23814 0 23.405 2.12773 1.14946 10.5191 -5.80372 0 12.9677 -1.85252 10.9685 -30.394 -1.71218 3.62206 22.4732 -0.132728 2.19259 -0.026247 -15.3584 8.17784 -2.84217e-014 0 -7.00423 15.2094 -37.4396 30.104 0 -7.10543e-015 15.5293 -16.1221 -19.6514 24.4664 0 -4.44089e-016 8.56048 -13.653 -2.02966 -3.6336 22.4732 -0.132728 -0.344693 3.39258 52.7214 -8.17784 2.84217e-014 -1.42109e-014 11.4772 14.1693 21.6881 -30.104 0 0 -8.60673 -14.6173 9.56988 -24.4664 0 0 -9.22679 -13.702 -2.75762 9.26261 0 0 28.8264 -54.6979 22.4528 0 -35.4897 0 -49.2148 58.8025 26.9036 1.42109e-014 -38.2023 0 28.7667 -23.6439 32.4288 -3.55271e-015 -6.0207 13.8939 1.09332e-015 -1.59028e-015 7.95139e-016 -9.26261 0 0 -7.33906 -58.8149 -1.10362 0 -35.4897 0 -91.9917 79.7874 84.3879 2.84217e-014 -38.2023 1.42109e-014 4.55359 -0.043809 25.3672 1.42109e-014 -6.0207 13.8939 1.59028e-015 -3.18055e-015 -0 
0 0 0 0 0 -0 -19.074 59.3829 -190.606 6.06033 10.3014 -27.1912 0 7.59534 0 -26.3973 55.1425 15.6422 0 23.5015 0 -5.38368 10.7136 2.18462 0 23.405 2.12773 1.19693 10.3786 -5.8257 0 12.9677 -1.85252 10.9826 -30.4264 -1.73046 3.62206 22.4732 -0.132728 2.28322 -0.119463 -15.446 8.17784 1.42109e-014 0 -6.91489 15.0081 -37.4098 30.104 2.84217e-014 0 15.5007 -16.0637 -19.669 24.4664 -2.84217e-014 0 8.63846 -13.5979 -2.03189 -3.6336 22.4732 -0.132728 -0.47974 3.42972 52.6321 -8.17784 0 0 11.3421 13.8964 21.7851 -30.104 2.84217e-014 0 -8.54861 -14.5879 9.42428 -24.4664 0 0 -9.21005 -13.6985 -2.62664 9.26261 0 0 29.0229 -54.9908 22.529 7.10543e-015 -35.4897 0 -50.1651 59.0131 27.6497 0 -38.2023 2.84217e-014 29.0057 -23.7533 32.6858 -3.55271e-015 -6.0207 13.8939 6.95746e-016 0 9.93923e-016 -9.26261 0 0 -7.45163 -59.0183 -1.14551 1.42109e-014 -35.4897 1.42109e-014 -94.2439 79.7271 86.71 -1.42109e-014 -38.2023 0 4.66205 -0.42946 25.2412 0 -6.0207 13.8939 1.32417e-031 -9.54166e-015 7.95139e-016 
0 0 0 0 0 -0 -19.0679 59.1874 -190.604 6.15582 10.3247 -27.1249 0 7.59534 0 -26.5439 55.4063 15.7519 1.42109e-014 23.5015 -1.42109e-014 -5.33005 10.6112 2.12685 0 23.405 2.12773 1.25264 10.3238 -5.85314 0 12.9677 -1.85252 10.9454 -30.5633 -1.76482 3.62206 22.4732 -0.132728 2.31976 -0.206503 -15.5179 8.17784 0 1.42109e-014 -6.77227 14.9082 -37.3929 30.104 2.84217e-014 -3.55271e-015 15.5515 -16.0806 -19.6283 24.4664 -2.84217e-014 0 8.55952 -13.6134 -2.07305 -3.6336 22.4732 -0.132728 -0.482605 3.3515 52.7715 -8.17784 2.84217e-014 0 11.2861 13.8951 21.5416 -30.104 2.84217e-014 0 -8.53504 -14.6902 9.35776 -24.4664 0 -1.42109e-014 -9.21852 -13.8163 -2.50749 9.26261 0 0 29.3025 -55.3779 23.3082 0 -35.4897 -1.42109e-014 -50.5504 59.7808 27.7709 0 -38.2023 2.84217e-014 29.0261 -23.7583 32.8114 0 -6.0207 13.8939 1.39149e-015 0 -1.98785e-016 -9.26261 0 0 -7.55576 -59.2525 -1.17463 -1.42109e-014 -35.4897 0 -96.4709 79.6635 88.9868 1.42109e-014 -38.2023 1.42109e-014 4.73481 -0.741162 25.1319 0 -6.0207 13.8939 -1.59028e-015 3.18055e-015 7.95139e-016 
0 0 0 0 0 -0 -19.0668 58.9916 -190.602 6.27548 10.393 -27.0526 -1.42109e-014 7.59534 0 -26.6274 55.6227 15.7911 0 23.5015 0 -5.326 10.5467 2.05268 0 23.405 2.12773 1.3249 10.1862 -5.84108 -1.42109e-014 12.9677 -1.85252 10.9225 -30.6311 -1.76086 3.62206 22.4732 -0.132728 2.46384 -0.31277 -15.5494 8.17784 -1.42109e-014 0 -6.65988 14.8193 -37.4012 30.104 0 0 15.6029 -16.1576 -19.5951 24.4664 2.84217e-014 -8.88178e-016 8.6361 -13.6869 -2.05329 -3.6336 22.4732 -0.132728 -0.392071 3.19905 52.745 -8.17784 0 1.42109e-014 11.1803 13.969 21.5188 -30.104 -2.84217e-014 0 -8.52201 -14.6842 9.23406 -24.4664 0 0 -9.26722 -13.8146 -2.56678 9.26261 0 0 29.568 -55.763 23.6653 -7.10543e-015 -35.4897 0 -51.275 60.158 28.2788 0 -38.2023 2.84217e-014 29.0398 -23.8978 32.8991 3.55271e-015 -6.0207 13.8939 -7.45443e-016 -1.59028e-015 -0 -9.26261 0 0 -7.66381 -59.5506 -1.21543 1.42109e-014 -35.4897 1.42109e-014 -98.7581 79.5883 91.3299 0 -38.2023 1.42109e-014 4.77303 -1.07914 24.9686 0 -6.0207 13.8939 -1.59028e-015 0 7.95139e-016 
0 0 0 0 0 -0 -19.0611 58.7977 -190.6 6.36708 10.4358 -26.9938 1.42109e-014 7.59534 0 -26.8318 55.8167 15.9738 1.42109e-014 23.5015 -1.42109e-014 -5.18274 10.515 2.05017 0 23.405 2.12773 1.29441 10.1175 -5.87813 0 12.9677 -1.85252 10.9654 -30.8145 -1.76401 3.62206 22.4732 -0.132728 2.53315 -0.465843 -15.6886 8.17784 -2.84217e-014 0 -6.60277 14.6884 -37.382 30.104 -2.84217e-014 3.55271e-015 15.6556 -16.0733 -19.6072 24.4664 0 0 8.42268 -13.5864 -2.04045 -3.6336 22.4732 -0.132728 -0.472474 3.07147 52.7424 -8.17784 0 1.42109e-014 11.1516 13.9547 21.339 -30.104 2.84217e-014 0 -8.52727 -14.7241 9.21942 -24.4664 -2.84217e-014 0 -9.27413 -13.8479 -2.65836 9.26261 0 2.84217e-014 29.8034 -56.0301 23.5412 -7.10543e-015 -35.4897 -2.13163e-014 -52.4171 60.087 29.2314 1.42109e-014 -38.2023 2.84217e-014 29.3582 -23.9454 33.1335 0 -6.0207 13.8939 -4.96962e-017 1.59028e-015 -0 -9.26261 0 0 -7.76265 -59.8216 -1.29464 0 -35.4897 -1.42109e-014 -101.026 79.4574 93.6004 0 -38.2023 0 4.7751 -1.40413 24.8887 0 -6.0207 13.8939 -7.95139e-016 6.36111e-015 -7.95139e-016 
0 0 0 0 0 -0 -19.0557 58.5939 -190.598 6.47766 10.516 -26.9437 0 7.59534 0 -26.8416 55.9771 15.9712 0 23.5015 1.42109e-014 -5.21395 10.4974 1.99597 0 23.405 2.12773 1.48708 10.0551 -5.85819 0 12.9677 -1.85252 10.7632 -31.0259 -1.81753 3.62206 22.4732 -0.132728 2.65537 -0.561222 -15.7491 8.17784 0 0 -6.49646 14.5419 -37.3554 30.104 2.84217e-014 -7.10543e-015 15.6594 -16.153 -19.6236 24.4664 0 1.77636e-015 8.4725 -13.6591 -1.95988 -3.6336 22.4732 -0.132728 -0.390477 2.94143 52.6958 -8.17784 -2.84217e-014 0 11.0512 13.9662 21.3161 -30.104 0 0 -8.46034 -14.7177 9.14104 -24.4664 0 0 -9.77576 -13.8225 -2.88239 9.26261 0 0 30.0964 -56.3657 23.6038 0 -35.4897 0 -53.481 60.1378 30.0889 0 -38.2023 -2.84217e-014 29.7099 -23.9211 33.4125 -3.55271e-015 -6.0207 13.8939 5.96354e-016 0 3.97569e-016 -9.26261 0 0 -7.82276 -60.2017 -1.37619 1.42109e-014 -35.4897 0 -103.324 79.2573 95.53 0 -38.2023 1.42109e-014 4.72195 -1.52963 25.2087 0 -6.0207 13.8939 7.95139e-016 6.36111e-015 -0 
